<?xml version="1.0" encoding="UTF-8"?>
<svg xmlns="http://www.w3.org/2000/svg" xmlns:xlink="http://www.w3.org/1999/xlink" version="1.1" width="700px" height="700px" viewBox="0 0 700 700"><defs><rect id="r0" width="21" height="21" fill="#ff0000"/></defs><rect x="0" y="0" width="700" height="700" fill="#fefefe"/><use x="87" y="87" xlink:href="#r0"/><use x="108" y="87" xlink:href="#r0"/><use x="129" y="87" xlink:href="#r0"/><use x="150" y="87" xlink:href="#r0"/><use x="171" y="87" xlink:href="#r0"/><use x="192" y="87" xlink:href="#r0"/><use x="213" y="87" xlink:href="#r0"/><use x="276" y="87" xlink:href="#r0"/><use x="339" y="87" xlink:href="#r0"/><use x="381" y="87" xlink:href="#r0"/><use x="465" y="87" xlink:href="#r0"/><use x="486" y="87" xlink:href="#r0"/><use x="507" y="87" xlink:href="#r0"/><use x="528" y="87" xlink:href="#r0"/><use x="549" y="87" xlink:href="#r0"/><use x="570" y="87" xlink:href="#r0"/><use x="591" y="87" xlink:href="#r0"/><use x="87" y="108" xlink:href="#r0"/><use x="213" y="108" xlink:href="#r0"/><use x="255" y="108" xlink:href="#r0"/><use x="318" y="108" xlink:href="#r0"/><use x="339" y="108" xlink:href="#r0"/><use x="402" y="108" xlink:href="#r0"/><use x="423" y="108" xlink:href="#r0"/><use x="465" y="108" xlink:href="#r0"/><use x="591" y="108" xlink:href="#r0"/><use x="87" y="129" xlink:href="#r0"/><use x="129" y="129" xlink:href="#r0"/><use x="150" y="129" xlink:href="#r0"/><use x="171" y="129" xlink:href="#r0"/><use x="213" y="129" xlink:href="#r0"/><use x="255" y="129" xlink:href="#r0"/><use x="276" y="129" xlink:href="#r0"/><use x="297" y="129" xlink:href="#r0"/><use x="318" y="129" xlink:href="#r0"/><use x="339" y="129" xlink:href="#r0"/><use x="381" y="129" xlink:href="#r0"/><use x="423" y="129" xlink:href="#r0"/><use x="465" y="129" xlink:href="#r0"/><use x="507" y="129" xlink:href="#r0"/><use x="528" y="129" xlink:href="#r0"/><use x="549" y="129" xlink:href="#r0"/><use x="591" y="129" xlink:href="#r0"/><use x="87" y="150" xlink:href="#r0"/><use x="129" y="150" xlink:href="#r0"/><use x="150" y="150" xlink:href="#r0"/><use x="171" y="150" xlink:href="#r0"/><use x="213" y="150" xlink:href="#r0"/><use x="276" y="150" xlink:href="#r0"/><use x="297" y="150" xlink:href="#r0"/><use x="318" y="150" xlink:href="#r0"/><use x="381" y="150" xlink:href="#r0"/><use x="402" y="150" xlink:href="#r0"/><use x="465" y="150" xlink:href="#r0"/><use x="507" y="150" xlink:href="#r0"/><use x="528" y="150" xlink:href="#r0"/><use x="549" y="150" xlink:href="#r0"/><use x="591" y="150" xlink:href="#r0"/><use x="87" y="171" xlink:href="#r0"/><use x="129" y="171" xlink:href="#r0"/><use x="150" y="171" xlink:href="#r0"/><use x="171" y="171" xlink:href="#r0"/><use x="213" y="171" xlink:href="#r0"/><use x="255" y="171" xlink:href="#r0"/><use x="381" y="171" xlink:href="#r0"/><use x="402" y="171" xlink:href="#r0"/><use x="465" y="171" xlink:href="#r0"/><use x="507" y="171" xlink:href="#r0"/><use x="528" y="171" xlink:href="#r0"/><use x="549" y="171" xlink:href="#r0"/><use x="591" y="171" xlink:href="#r0"/><use x="87" y="192" xlink:href="#r0"/><use x="213" y="192" xlink:href="#r0"/><use x="255" y="192" xlink:href="#r0"/><use x="276" y="192" xlink:href="#r0"/><use x="318" y="192" xlink:href="#r0"/><use x="402" y="192" xlink:href="#r0"/><use x="423" y="192" xlink:href="#r0"/><use x="465" y="192" xlink:href="#r0"/><use x="591" y="192" xlink:href="#r0"/><use x="87" y="213" xlink:href="#r0"/><use x="108" y="213" xlink:href="#r0"/><use x="129" y="213" xlink:href="#r0"/><use x="150" y="213" xlink:href="#r0"/><use x="171" y="213" xlink:href="#r0"/><use x="192" y="213" xlink:href="#r0"/><use x="213" y="213" xlink:href="#r0"/><use x="255" y="213" xlink:href="#r0"/><use x="297" y="213" xlink:href="#r0"/><use x="339" y="213" xlink:href="#r0"/><use x="381" y="213" xlink:href="#r0"/><use x="423" y="213" xlink:href="#r0"/><use x="465" y="213" xlink:href="#r0"/><use x="486" y="213" xlink:href="#r0"/><use x="507" y="213" xlink:href="#r0"/><use x="528" y="213" xlink:href="#r0"/><use x="549" y="213" xlink:href="#r0"/><use x="570" y="213" xlink:href="#r0"/><use x="591" y="213" xlink:href="#r0"/><use x="255" y="234" xlink:href="#r0"/><use x="276" y="234" xlink:href="#r0"/><use x="339" y="234" xlink:href="#r0"/><use x="402" y="234" xlink:href="#r0"/><use x="87" y="255" xlink:href="#r0"/><use x="108" y="255" xlink:href="#r0"/><use x="150" y="255" xlink:href="#r0"/><use x="213" y="255" xlink:href="#r0"/><use x="234" y="255" xlink:href="#r0"/><use x="297" y="255" xlink:href="#r0"/><use x="360" y="255" xlink:href="#r0"/><use x="381" y="255" xlink:href="#r0"/><use x="423" y="255" xlink:href="#r0"/><use x="465" y="255" xlink:href="#r0"/><use x="486" y="255" xlink:href="#r0"/><use x="507" y="255" xlink:href="#r0"/><use x="549" y="255" xlink:href="#r0"/><use x="570" y="255" xlink:href="#r0"/><use x="129" y="276" xlink:href="#r0"/><use x="171" y="276" xlink:href="#r0"/><use x="192" y="276" xlink:href="#r0"/><use x="255" y="276" xlink:href="#r0"/><use x="297" y="276" xlink:href="#r0"/><use x="318" y="276" xlink:href="#r0"/><use x="360" y="276" xlink:href="#r0"/><use x="423" y="276" xlink:href="#r0"/><use x="444" y="276" xlink:href="#r0"/><use x="465" y="276" xlink:href="#r0"/><use x="528" y="276" xlink:href="#r0"/><use x="591" y="276" xlink:href="#r0"/><use x="87" y="297" xlink:href="#r0"/><use x="129" y="297" xlink:href="#r0"/><use x="150" y="297" xlink:href="#r0"/><use x="192" y="297" xlink:href="#r0"/><use x="213" y="297" xlink:href="#r0"/><use x="234" y="297" xlink:href="#r0"/><use x="276" y="297" xlink:href="#r0"/><use x="297" y="297" xlink:href="#r0"/><use x="360" y="297" xlink:href="#r0"/><use x="444" y="297" xlink:href="#r0"/><use x="486" y="297" xlink:href="#r0"/><use x="507" y="297" xlink:href="#r0"/><use x="528" y="297" xlink:href="#r0"/><use x="549" y="297" xlink:href="#r0"/><use x="570" y="297" xlink:href="#r0"/><use x="591" y="297" xlink:href="#r0"/><use x="192" y="318" xlink:href="#r0"/><use x="234" y="318" xlink:href="#r0"/><use x="360" y="318" xlink:href="#r0"/><use x="381" y="318" xlink:href="#r0"/><use x="444" y="318" xlink:href="#r0"/><use x="465" y="318" xlink:href="#r0"/><use x="570" y="318" xlink:href="#r0"/><use x="129" y="339" xlink:href="#r0"/><use x="171" y="339" xlink:href="#r0"/><use x="192" y="339" xlink:href="#r0"/><use x="213" y="339" xlink:href="#r0"/><use x="339" y="339" xlink:href="#r0"/><use x="360" y="339" xlink:href="#r0"/><use x="465" y="339" xlink:href="#r0"/><use x="570" y="339" xlink:href="#r0"/><use x="591" y="339" xlink:href="#r0"/><use x="150" y="360" xlink:href="#r0"/><use x="171" y="360" xlink:href="#r0"/><use x="192" y="360" xlink:href="#r0"/><use x="297" y="360" xlink:href="#r0"/><use x="318" y="360" xlink:href="#r0"/><use x="339" y="360" xlink:href="#r0"/><use x="381" y="360" xlink:href="#r0"/><use x="444" y="360" xlink:href="#r0"/><use x="465" y="360" xlink:href="#r0"/><use x="486" y="360" xlink:href="#r0"/><use x="528" y="360" xlink:href="#r0"/><use x="549" y="360" xlink:href="#r0"/><use x="570" y="360" xlink:href="#r0"/><use x="591" y="360" xlink:href="#r0"/><use x="87" y="381" xlink:href="#r0"/><use x="129" y="381" xlink:href="#r0"/><use x="150" y="381" xlink:href="#r0"/><use x="171" y="381" xlink:href="#r0"/><use x="213" y="381" xlink:href="#r0"/><use x="255" y="381" xlink:href="#r0"/><use x="276" y="381" xlink:href="#r0"/><use x="339" y="381" xlink:href="#r0"/><use x="360" y="381" xlink:href="#r0"/><use x="423" y="381" xlink:href="#r0"/><use x="444" y="381" xlink:href="#r0"/><use x="465" y="381" xlink:href="#r0"/><use x="528" y="381" xlink:href="#r0"/><use x="549" y="381" xlink:href="#r0"/><use x="591" y="381" xlink:href="#r0"/><use x="108" y="402" xlink:href="#r0"/><use x="276" y="402" xlink:href="#r0"/><use x="339" y="402" xlink:href="#r0"/><use x="360" y="402" xlink:href="#r0"/><use x="444" y="402" xlink:href="#r0"/><use x="507" y="402" xlink:href="#r0"/><use x="570" y="402" xlink:href="#r0"/><use x="87" y="423" xlink:href="#r0"/><use x="108" y="423" xlink:href="#r0"/><use x="150" y="423" xlink:href="#r0"/><use x="171" y="423" xlink:href="#r0"/><use x="213" y="423" xlink:href="#r0"/><use x="234" y="423" xlink:href="#r0"/><use x="255" y="423" xlink:href="#r0"/><use x="297" y="423" xlink:href="#r0"/><use x="318" y="423" xlink:href="#r0"/><use x="423" y="423" xlink:href="#r0"/><use x="444" y="423" xlink:href="#r0"/><use x="465" y="423" xlink:href="#r0"/><use x="486" y="423" xlink:href="#r0"/><use x="507" y="423" xlink:href="#r0"/><use x="528" y="423" xlink:href="#r0"/><use x="549" y="423" xlink:href="#r0"/><use x="570" y="423" xlink:href="#r0"/><use x="591" y="423" xlink:href="#r0"/><use x="255" y="444" xlink:href="#r0"/><use x="360" y="444" xlink:href="#r0"/><use x="381" y="444" xlink:href="#r0"/><use x="402" y="444" xlink:href="#r0"/><use x="423" y="444" xlink:href="#r0"/><use x="507" y="444" xlink:href="#r0"/><use x="528" y="444" xlink:href="#r0"/><use x="87" y="465" xlink:href="#r0"/><use x="108" y="465" xlink:href="#r0"/><use x="129" y="465" xlink:href="#r0"/><use x="150" y="465" xlink:href="#r0"/><use x="171" y="465" xlink:href="#r0"/><use x="192" y="465" xlink:href="#r0"/><use x="213" y="465" xlink:href="#r0"/><use x="255" y="465" xlink:href="#r0"/><use x="402" y="465" xlink:href="#r0"/><use x="423" y="465" xlink:href="#r0"/><use x="465" y="465" xlink:href="#r0"/><use x="507" y="465" xlink:href="#r0"/><use x="570" y="465" xlink:href="#r0"/><use x="591" y="465" xlink:href="#r0"/><use x="87" y="486" xlink:href="#r0"/><use x="213" y="486" xlink:href="#r0"/><use x="276" y="486" xlink:href="#r0"/><use x="297" y="486" xlink:href="#r0"/><use x="318" y="486" xlink:href="#r0"/><use x="381" y="486" xlink:href="#r0"/><use x="423" y="486" xlink:href="#r0"/><use x="507" y="486" xlink:href="#r0"/><use x="549" y="486" xlink:href="#r0"/><use x="591" y="486" xlink:href="#r0"/><use x="87" y="507" xlink:href="#r0"/><use x="129" y="507" xlink:href="#r0"/><use x="150" y="507" xlink:href="#r0"/><use x="171" y="507" xlink:href="#r0"/><use x="213" y="507" xlink:href="#r0"/><use x="297" y="507" xlink:href="#r0"/><use x="318" y="507" xlink:href="#r0"/><use x="339" y="507" xlink:href="#r0"/><use x="360" y="507" xlink:href="#r0"/><use x="381" y="507" xlink:href="#r0"/><use x="423" y="507" xlink:href="#r0"/><use x="444" y="507" xlink:href="#r0"/><use x="465" y="507" xlink:href="#r0"/><use x="486" y="507" xlink:href="#r0"/><use x="507" y="507" xlink:href="#r0"/><use x="528" y="507" xlink:href="#r0"/><use x="591" y="507" xlink:href="#r0"/><use x="87" y="528" xlink:href="#r0"/><use x="129" y="528" xlink:href="#r0"/><use x="150" y="528" xlink:href="#r0"/><use x="171" y="528" xlink:href="#r0"/><use x="213" y="528" xlink:href="#r0"/><use x="255" y="528" xlink:href="#r0"/><use x="276" y="528" xlink:href="#r0"/><use x="318" y="528" xlink:href="#r0"/><use x="339" y="528" xlink:href="#r0"/><use x="360" y="528" xlink:href="#r0"/><use x="381" y="528" xlink:href="#r0"/><use x="486" y="528" xlink:href="#r0"/><use x="507" y="528" xlink:href="#r0"/><use x="528" y="528" xlink:href="#r0"/><use x="87" y="549" xlink:href="#r0"/><use x="129" y="549" xlink:href="#r0"/><use x="150" y="549" xlink:href="#r0"/><use x="171" y="549" xlink:href="#r0"/><use x="213" y="549" xlink:href="#r0"/><use x="276" y="549" xlink:href="#r0"/><use x="318" y="549" xlink:href="#r0"/><use x="339" y="549" xlink:href="#r0"/><use x="381" y="549" xlink:href="#r0"/><use x="423" y="549" xlink:href="#r0"/><use x="507" y="549" xlink:href="#r0"/><use x="549" y="549" xlink:href="#r0"/><use x="591" y="549" xlink:href="#r0"/><use x="87" y="570" xlink:href="#r0"/><use x="213" y="570" xlink:href="#r0"/><use x="255" y="570" xlink:href="#r0"/><use x="276" y="570" xlink:href="#r0"/><use x="318" y="570" xlink:href="#r0"/><use x="339" y="570" xlink:href="#r0"/><use x="360" y="570" xlink:href="#r0"/><use x="402" y="570" xlink:href="#r0"/><use x="423" y="570" xlink:href="#r0"/><use x="444" y="570" xlink:href="#r0"/><use x="465" y="570" xlink:href="#r0"/><use x="87" y="591" xlink:href="#r0"/><use x="108" y="591" xlink:href="#r0"/><use x="129" y="591" xlink:href="#r0"/><use x="150" y="591" xlink:href="#r0"/><use x="171" y="591" xlink:href="#r0"/><use x="192" y="591" xlink:href="#r0"/><use x="213" y="591" xlink:href="#r0"/><use x="255" y="591" xlink:href="#r0"/><use x="276" y="591" xlink:href="#r0"/><use x="297" y="591" xlink:href="#r0"/><use x="318" y="591" xlink:href="#r0"/><use x="339" y="591" xlink:href="#r0"/><use x="381" y="591" xlink:href="#r0"/><use x="402" y="591" xlink:href="#r0"/><use x="423" y="591" xlink:href="#r0"/><use x="465" y="591" xlink:href="#r0"/><use x="486" y="591" xlink:href="#r0"/><use x="570" y="591" xlink:href="#r0"/><use x="591" y="591" xlink:href="#r0"/></svg>
